<svg id="visual" viewBox="0 0 1920 1080" width="1920" height="1080" xmlns="http://www.w3.org/2000/svg" xmlns:xlink="http://www.w3.org/1999/xlink" version="1.1"><rect x="0" y="0" width="1920" height="1080" fill="#fff"></rect><path d="M900 1080L922.8 1068.8C945.7 1057.7 991.3 1035.3 996.7 1012.8C1002 990.3 967 967.7 969.7 945.2C972.3 922.7 1012.7 900.3 1012.7 877.8C1012.7 855.3 972.3 832.7 952.3 810.2C932.3 787.7 932.7 765.3 926.7 742.8C920.7 720.3 908.3 697.7 934.5 675.2C960.7 652.7 1025.3 630.3 1055.7 607.8C1086 585.3 1082 562.7 1059 540.2C1036 517.7 994 495.3 964.3 472.8C934.7 450.3 917.3 427.7 930.5 405.2C943.7 382.7 987.3 360.3 986.8 337.8C986.3 315.3 941.7 292.7 945.5 270.2C949.3 247.7 1001.7 225.3 1018.7 202.8C1035.7 180.3 1017.3 157.7 1017 135.2C1016.7 112.7 1034.3 90.3 1024.2 67.8C1014 45.3 976 22.7 957 11.3L938 0L1920 0L1920 11.3C1920 22.7 1920 45.3 1920 67.8C1920 90.3 1920 112.7 1920 135.2C1920 157.7 1920 180.3 1920 202.8C1920 225.3 1920 247.7 1920 270.2C1920 292.7 1920 315.3 1920 337.8C1920 360.3 1920 382.7 1920 405.2C1920 427.7 1920 450.3 1920 472.8C1920 495.3 1920 517.7 1920 540.2C1920 562.7 1920 585.3 1920 607.8C1920 630.3 1920 652.7 1920 675.2C1920 697.7 1920 720.3 1920 742.8C1920 765.3 1920 787.7 1920 810.2C1920 832.7 1920 855.3 1920 877.8C1920 900.3 1920 922.7 1920 945.2C1920 967.7 1920 990.3 1920 1012.8C1920 1035.3 1920 1057.7 1920 1068.8L1920 1080Z" fill="#ffffff"></path><path d="M1140 1080L1124.5 1068.8C1109 1057.7 1078 1035.3 1087.8 1012.8C1097.7 990.3 1148.3 967.7 1148.8 945.2C1149.3 922.7 1099.7 900.3 1082.3 877.8C1065 855.3 1080 832.7 1089.7 810.2C1099.3 787.7 1103.7 765.3 1125.2 742.8C1146.7 720.3 1185.3 697.7 1191 675.2C1196.7 652.7 1169.3 630.3 1161.5 607.8C1153.7 585.3 1165.3 562.7 1163.7 540.2C1162 517.7 1147 495.3 1136.3 472.8C1125.7 450.3 1119.3 427.7 1126.5 405.2C1133.7 382.7 1154.3 360.3 1164.8 337.8C1175.3 315.3 1175.7 292.7 1154.5 270.2C1133.3 247.7 1090.7 225.3 1076 202.8C1061.3 180.3 1074.7 157.7 1092.3 135.2C1110 112.7 1132 90.3 1148.5 67.8C1165 45.3 1176 22.7 1181.5 11.3L1187 0L1920 0L1920 11.3C1920 22.7 1920 45.3 1920 67.8C1920 90.3 1920 112.7 1920 135.2C1920 157.7 1920 180.3 1920 202.8C1920 225.3 1920 247.7 1920 270.2C1920 292.7 1920 315.3 1920 337.8C1920 360.3 1920 382.7 1920 405.2C1920 427.7 1920 450.3 1920 472.8C1920 495.3 1920 517.7 1920 540.2C1920 562.7 1920 585.3 1920 607.8C1920 630.3 1920 652.7 1920 675.2C1920 697.7 1920 720.3 1920 742.8C1920 765.3 1920 787.7 1920 810.2C1920 832.7 1920 855.3 1920 877.8C1920 900.3 1920 922.7 1920 945.2C1920 967.7 1920 990.3 1920 1012.8C1920 1035.3 1920 1057.7 1920 1068.8L1920 1080Z" fill="#c6c8ff"></path><path d="M1198 1080L1191.3 1068.8C1184.7 1057.7 1171.3 1035.3 1169.7 1012.8C1168 990.3 1178 967.7 1207.7 945.2C1237.3 922.7 1286.7 900.3 1285.3 877.8C1284 855.3 1232 832.7 1235.2 810.2C1238.3 787.7 1296.7 765.3 1313 742.8C1329.3 720.3 1303.7 697.7 1294.5 675.2C1285.3 652.7 1292.7 630.3 1286 607.8C1279.3 585.3 1258.7 562.7 1259.2 540.2C1259.7 517.7 1281.3 495.3 1284 472.8C1286.7 450.3 1270.3 427.7 1251.3 405.2C1232.3 382.7 1210.7 360.3 1205.2 337.8C1199.7 315.3 1210.3 292.7 1210.2 270.2C1210 247.7 1199 225.3 1201.8 202.8C1204.7 180.3 1221.3 157.7 1242.7 135.2C1264 112.7 1290 90.3 1284.5 67.8C1279 45.3 1242 22.7 1223.5 11.3L1205 0L1920 0L1920 11.3C1920 22.7 1920 45.3 1920 67.8C1920 90.3 1920 112.7 1920 135.2C1920 157.7 1920 180.3 1920 202.8C1920 225.3 1920 247.7 1920 270.2C1920 292.7 1920 315.3 1920 337.8C1920 360.3 1920 382.7 1920 405.2C1920 427.7 1920 450.3 1920 472.8C1920 495.3 1920 517.7 1920 540.2C1920 562.7 1920 585.3 1920 607.8C1920 630.3 1920 652.7 1920 675.2C1920 697.7 1920 720.3 1920 742.8C1920 765.3 1920 787.7 1920 810.2C1920 832.7 1920 855.3 1920 877.8C1920 900.3 1920 922.7 1920 945.2C1920 967.7 1920 990.3 1920 1012.8C1920 1035.3 1920 1057.7 1920 1068.8L1920 1080Z" fill="#8393ff"></path><path d="M1371 1080L1361.2 1068.8C1351.3 1057.7 1331.7 1035.3 1320.5 1012.8C1309.3 990.3 1306.7 967.7 1328.5 945.2C1350.3 922.7 1396.7 900.3 1419.2 877.8C1441.7 855.3 1440.3 832.7 1417.7 810.2C1395 787.7 1351 765.3 1329.8 742.8C1308.7 720.3 1310.3 697.7 1315.2 675.2C1320 652.7 1328 630.3 1348.3 607.8C1368.7 585.3 1401.3 562.7 1413.8 540.2C1426.3 517.7 1418.7 495.3 1404.3 472.8C1390 450.3 1369 427.7 1371 405.2C1373 382.7 1398 360.3 1410.8 337.8C1423.7 315.3 1424.3 292.7 1426.2 270.2C1428 247.7 1431 225.3 1440 202.8C1449 180.3 1464 157.7 1457.2 135.2C1450.3 112.7 1421.7 90.3 1414.8 67.8C1408 45.3 1423 22.7 1430.5 11.3L1438 0L1920 0L1920 11.3C1920 22.7 1920 45.3 1920 67.8C1920 90.3 1920 112.7 1920 135.2C1920 157.7 1920 180.3 1920 202.8C1920 225.3 1920 247.7 1920 270.2C1920 292.7 1920 315.3 1920 337.8C1920 360.3 1920 382.7 1920 405.2C1920 427.7 1920 450.3 1920 472.8C1920 495.3 1920 517.7 1920 540.2C1920 562.7 1920 585.3 1920 607.8C1920 630.3 1920 652.7 1920 675.2C1920 697.7 1920 720.3 1920 742.8C1920 765.3 1920 787.7 1920 810.2C1920 832.7 1920 855.3 1920 877.8C1920 900.3 1920 922.7 1920 945.2C1920 967.7 1920 990.3 1920 1012.8C1920 1035.3 1920 1057.7 1920 1068.8L1920 1080Z" fill="#5f7fff"></path><path d="M1479 1080L1496.2 1068.8C1513.3 1057.7 1547.7 1035.3 1561 1012.8C1574.3 990.3 1566.7 967.7 1559.5 945.2C1552.3 922.7 1545.7 900.3 1525 877.8C1504.3 855.3 1469.7 832.7 1453.3 810.2C1437 787.7 1439 765.3 1443.3 742.8C1447.7 720.3 1454.3 697.7 1470.8 675.2C1487.3 652.7 1513.7 630.3 1518.8 607.8C1524 585.3 1508 562.7 1498.5 540.2C1489 517.7 1486 495.3 1503.2 472.8C1520.3 450.3 1557.7 427.7 1575.3 405.2C1593 382.7 1591 360.3 1585.8 337.8C1580.7 315.3 1572.3 292.7 1548.3 270.2C1524.3 247.7 1484.7 225.3 1480 202.8C1475.3 180.3 1505.7 157.7 1532 135.2C1558.3 112.7 1580.7 90.3 1573.7 67.8C1566.7 45.3 1530.3 22.7 1512.2 11.3L1494 0L1920 0L1920 11.3C1920 22.7 1920 45.3 1920 67.8C1920 90.3 1920 112.7 1920 135.2C1920 157.7 1920 180.3 1920 202.8C1920 225.3 1920 247.7 1920 270.2C1920 292.7 1920 315.3 1920 337.8C1920 360.3 1920 382.7 1920 405.2C1920 427.7 1920 450.3 1920 472.8C1920 495.3 1920 517.7 1920 540.2C1920 562.7 1920 585.3 1920 607.8C1920 630.3 1920 652.7 1920 675.2C1920 697.7 1920 720.3 1920 742.8C1920 765.3 1920 787.7 1920 810.2C1920 832.7 1920 855.3 1920 877.8C1920 900.3 1920 922.7 1920 945.2C1920 967.7 1920 990.3 1920 1012.8C1920 1035.3 1920 1057.7 1920 1068.8L1920 1080Z" fill="#8393ff"></path><path d="M1723 1080L1708.8 1068.8C1694.7 1057.7 1666.3 1035.3 1660.3 1012.8C1654.3 990.3 1670.7 967.7 1662.5 945.2C1654.3 922.7 1621.7 900.3 1615.3 877.8C1609 855.3 1629 832.7 1651.5 810.2C1674 787.7 1699 765.3 1707.2 742.8C1715.3 720.3 1706.7 697.7 1705.3 675.2C1704 652.7 1710 630.3 1700.7 607.8C1691.3 585.3 1666.7 562.7 1663.2 540.2C1659.7 517.7 1677.3 495.3 1667.7 472.8C1658 450.3 1621 427.7 1623.2 405.2C1625.3 382.7 1666.7 360.3 1668.2 337.8C1669.7 315.3 1631.3 292.7 1629.3 270.2C1627.3 247.7 1661.7 225.3 1681.2 202.8C1700.7 180.3 1705.3 157.7 1690.7 135.2C1676 112.7 1642 90.3 1635.8 67.8C1629.7 45.3 1651.3 22.7 1662.2 11.3L1673 0L1920 0L1920 11.3C1920 22.7 1920 45.3 1920 67.8C1920 90.3 1920 112.7 1920 135.2C1920 157.7 1920 180.3 1920 202.8C1920 225.3 1920 247.7 1920 270.2C1920 292.7 1920 315.3 1920 337.8C1920 360.3 1920 382.7 1920 405.2C1920 427.7 1920 450.3 1920 472.8C1920 495.3 1920 517.7 1920 540.2C1920 562.7 1920 585.3 1920 607.8C1920 630.3 1920 652.7 1920 675.2C1920 697.7 1920 720.3 1920 742.8C1920 765.3 1920 787.7 1920 810.2C1920 832.7 1920 855.3 1920 877.8C1920 900.3 1920 922.7 1920 945.2C1920 967.7 1920 990.3 1920 1012.8C1920 1035.3 1920 1057.7 1920 1068.8L1920 1080Z" fill="#c6c8ff"></path><path d="M1716 1080L1729.3 1068.8C1742.7 1057.7 1769.3 1035.3 1781.8 1012.8C1794.3 990.3 1792.7 967.7 1801 945.2C1809.3 922.7 1827.7 900.3 1814.8 877.8C1802 855.3 1758 832.7 1754.7 810.2C1751.3 787.7 1788.7 765.3 1801.8 742.8C1815 720.3 1804 697.7 1790.7 675.2C1777.3 652.7 1761.7 630.3 1755.8 607.8C1750 585.3 1754 562.7 1752 540.2C1750 517.7 1742 495.3 1746.8 472.8C1751.7 450.3 1769.3 427.7 1771.7 405.2C1774 382.7 1761 360.3 1759.7 337.8C1758.3 315.3 1768.7 292.7 1766.8 270.2C1765 247.7 1751 225.3 1752.5 202.8C1754 180.3 1771 157.7 1776.7 135.2C1782.3 112.7 1776.7 90.3 1770 67.8C1763.3 45.3 1755.7 22.7 1751.8 11.3L1748 0L1920 0L1920 11.3C1920 22.7 1920 45.3 1920 67.8C1920 90.3 1920 112.7 1920 135.2C1920 157.7 1920 180.3 1920 202.8C1920 225.3 1920 247.7 1920 270.2C1920 292.7 1920 315.3 1920 337.8C1920 360.3 1920 382.7 1920 405.2C1920 427.7 1920 450.3 1920 472.8C1920 495.3 1920 517.7 1920 540.2C1920 562.7 1920 585.3 1920 607.8C1920 630.3 1920 652.7 1920 675.2C1920 697.7 1920 720.3 1920 742.8C1920 765.3 1920 787.7 1920 810.2C1920 832.7 1920 855.3 1920 877.8C1920 900.3 1920 922.7 1920 945.2C1920 967.7 1920 990.3 1920 1012.8C1920 1035.3 1920 1057.7 1920 1068.8L1920 1080Z" fill="#ffffff"></path></svg>