<svg id="visual" viewBox="0 0 1920 1080" width="1920" height="1080" xmlns="http://www.w3.org/2000/svg" xmlns:xlink="http://www.w3.org/1999/xlink" version="1.1"><rect x="0" y="0" width="1920" height="1080" fill="#ffffff"></rect><path d="M0 550L18.8 552C37.7 554 75.3 558 113 570C150.7 582 188.3 602 226 590.3C263.7 578.7 301.3 535.3 339 531.5C376.7 527.7 414.3 563.3 452 583.7C489.7 604 527.3 609 565 608.8C602.7 608.7 640.3 603.3 678 600.8C715.7 598.3 753.3 598.7 791 599.2C828.7 599.7 866.3 600.3 903.8 606.2C941.3 612 978.7 623 1016.2 624.7C1053.7 626.3 1091.3 618.7 1129 614.5C1166.7 610.3 1204.3 609.7 1242 593.5C1279.7 577.3 1317.3 545.7 1355 539.5C1392.7 533.3 1430.3 552.7 1468 563.3C1505.7 574 1543.3 576 1581 582.5C1618.7 589 1656.3 600 1694 593.2C1731.7 586.3 1769.3 561.7 1807 563.2C1844.7 564.7 1882.3 592.3 1901.2 606.2L1920 620L1920 1081L1901.2 1081C1882.3 1081 1844.7 1081 1807 1081C1769.3 1081 1731.7 1081 1694 1081C1656.3 1081 1618.7 1081 1581 1081C1543.3 1081 1505.7 1081 1468 1081C1430.3 1081 1392.7 1081 1355 1081C1317.3 1081 1279.7 1081 1242 1081C1204.3 1081 1166.7 1081 1129 1081C1091.3 1081 1053.7 1081 1016.2 1081C978.7 1081 941.3 1081 903.8 1081C866.3 1081 828.7 1081 791 1081C753.3 1081 715.7 1081 678 1081C640.3 1081 602.7 1081 565 1081C527.3 1081 489.7 1081 452 1081C414.3 1081 376.7 1081 339 1081C301.3 1081 263.7 1081 226 1081C188.3 1081 150.7 1081 113 1081C75.3 1081 37.7 1081 18.8 1081L0 1081Z" fill="#ffffff"></path><path d="M0 710L18.8 705.3C37.7 700.7 75.3 691.3 113 688.7C150.7 686 188.3 690 226 702C263.7 714 301.3 734 339 731.5C376.7 729 414.3 704 452 695.5C489.7 687 527.3 695 565 688.5C602.7 682 640.3 661 678 646.7C715.7 632.3 753.3 624.7 791 632.2C828.7 639.7 866.3 662.3 903.8 683.3C941.3 704.3 978.7 723.7 1016.2 720.2C1053.7 716.7 1091.3 690.3 1129 681C1166.7 671.7 1204.3 679.3 1242 684.7C1279.7 690 1317.3 693 1355 695.3C1392.7 697.7 1430.3 699.3 1468 682.7C1505.7 666 1543.3 631 1581 616C1618.7 601 1656.3 606 1694 628.3C1731.7 650.7 1769.3 690.3 1807 690C1844.7 689.7 1882.3 649.3 1901.2 629.2L1920 609L1920 1081L1901.2 1081C1882.3 1081 1844.7 1081 1807 1081C1769.3 1081 1731.7 1081 1694 1081C1656.3 1081 1618.7 1081 1581 1081C1543.3 1081 1505.7 1081 1468 1081C1430.3 1081 1392.7 1081 1355 1081C1317.3 1081 1279.7 1081 1242 1081C1204.3 1081 1166.7 1081 1129 1081C1091.3 1081 1053.7 1081 1016.2 1081C978.7 1081 941.3 1081 903.8 1081C866.3 1081 828.7 1081 791 1081C753.3 1081 715.7 1081 678 1081C640.3 1081 602.7 1081 565 1081C527.3 1081 489.7 1081 452 1081C414.3 1081 376.7 1081 339 1081C301.3 1081 263.7 1081 226 1081C188.3 1081 150.7 1081 113 1081C75.3 1081 37.7 1081 18.8 1081L0 1081Z" fill="#deddff"></path><path d="M0 849L18.8 845.3C37.7 841.7 75.3 834.3 113 820C150.7 805.7 188.3 784.3 226 769.7C263.7 755 301.3 747 339 755.3C376.7 763.7 414.3 788.3 452 803.3C489.7 818.3 527.3 823.7 565 810.8C602.7 798 640.3 767 678 748.5C715.7 730 753.3 724 791 728.3C828.7 732.7 866.3 747.3 903.8 750C941.3 752.7 978.7 743.3 1016.2 751.3C1053.7 759.3 1091.3 784.7 1129 798.2C1166.7 811.7 1204.3 813.3 1242 809.2C1279.7 805 1317.3 795 1355 792.8C1392.7 790.7 1430.3 796.3 1468 782.3C1505.7 768.3 1543.3 734.7 1581 737.2C1618.7 739.7 1656.3 778.3 1694 779.2C1731.7 780 1769.3 743 1807 728.5C1844.7 714 1882.3 722 1901.2 726L1920 730L1920 1081L1901.2 1081C1882.3 1081 1844.7 1081 1807 1081C1769.3 1081 1731.7 1081 1694 1081C1656.3 1081 1618.7 1081 1581 1081C1543.3 1081 1505.7 1081 1468 1081C1430.3 1081 1392.7 1081 1355 1081C1317.3 1081 1279.7 1081 1242 1081C1204.3 1081 1166.7 1081 1129 1081C1091.3 1081 1053.7 1081 1016.2 1081C978.7 1081 941.3 1081 903.8 1081C866.3 1081 828.7 1081 791 1081C753.3 1081 715.7 1081 678 1081C640.3 1081 602.7 1081 565 1081C527.3 1081 489.7 1081 452 1081C414.3 1081 376.7 1081 339 1081C301.3 1081 263.7 1081 226 1081C188.3 1081 150.7 1081 113 1081C75.3 1081 37.7 1081 18.8 1081L0 1081Z" fill="#babdff"></path><path d="M0 832L18.8 839.7C37.7 847.3 75.3 862.7 113 873.3C150.7 884 188.3 890 226 878.3C263.7 866.7 301.3 837.3 339 824.8C376.7 812.3 414.3 816.7 452 836.3C489.7 856 527.3 891 565 909.5C602.7 928 640.3 930 678 914.5C715.7 899 753.3 866 791 846.7C828.7 827.3 866.3 821.7 903.8 825.7C941.3 829.7 978.7 843.3 1016.2 841.8C1053.7 840.3 1091.3 823.7 1129 826.5C1166.7 829.3 1204.3 851.7 1242 854.5C1279.7 857.3 1317.3 840.7 1355 834.3C1392.7 828 1430.3 832 1468 848C1505.7 864 1543.3 892 1581 904.2C1618.7 916.3 1656.3 912.7 1694 906.3C1731.7 900 1769.3 891 1807 880.7C1844.7 870.3 1882.3 858.7 1901.2 852.8L1920 847L1920 1081L1901.2 1081C1882.3 1081 1844.7 1081 1807 1081C1769.3 1081 1731.7 1081 1694 1081C1656.3 1081 1618.7 1081 1581 1081C1543.3 1081 1505.7 1081 1468 1081C1430.3 1081 1392.7 1081 1355 1081C1317.3 1081 1279.7 1081 1242 1081C1204.3 1081 1166.7 1081 1129 1081C1091.3 1081 1053.7 1081 1016.2 1081C978.7 1081 941.3 1081 903.8 1081C866.3 1081 828.7 1081 791 1081C753.3 1081 715.7 1081 678 1081C640.3 1081 602.7 1081 565 1081C527.3 1081 489.7 1081 452 1081C414.3 1081 376.7 1081 339 1081C301.3 1081 263.7 1081 226 1081C188.3 1081 150.7 1081 113 1081C75.3 1081 37.7 1081 18.8 1081L0 1081Z" fill="#929dff"></path><path d="M0 961L18.8 966.2C37.7 971.3 75.3 981.7 113 972.8C150.7 964 188.3 936 226 925.8C263.7 915.7 301.3 923.3 339 937.7C376.7 952 414.3 973 452 973.5C489.7 974 527.3 954 565 953.3C602.7 952.7 640.3 971.3 678 987C715.7 1002.7 753.3 1015.3 791 1009C828.7 1002.7 866.3 977.3 903.8 975.2C941.3 973 978.7 994 1016.2 988C1053.7 982 1091.3 949 1129 947C1166.7 945 1204.3 974 1242 993.8C1279.7 1013.7 1317.3 1024.3 1355 1015C1392.7 1005.7 1430.3 976.3 1468 959C1505.7 941.7 1543.3 936.3 1581 946.3C1618.7 956.3 1656.3 981.7 1694 990.8C1731.7 1000 1769.3 993 1807 977C1844.7 961 1882.3 936 1901.2 923.5L1920 911L1920 1081L1901.2 1081C1882.3 1081 1844.7 1081 1807 1081C1769.3 1081 1731.7 1081 1694 1081C1656.3 1081 1618.7 1081 1581 1081C1543.3 1081 1505.7 1081 1468 1081C1430.3 1081 1392.7 1081 1355 1081C1317.3 1081 1279.7 1081 1242 1081C1204.3 1081 1166.7 1081 1129 1081C1091.3 1081 1053.7 1081 1016.2 1081C978.7 1081 941.3 1081 903.8 1081C866.3 1081 828.7 1081 791 1081C753.3 1081 715.7 1081 678 1081C640.3 1081 602.7 1081 565 1081C527.3 1081 489.7 1081 452 1081C414.3 1081 376.7 1081 339 1081C301.3 1081 263.7 1081 226 1081C188.3 1081 150.7 1081 113 1081C75.3 1081 37.7 1081 18.8 1081L0 1081Z" fill="#5f7fff"></path></svg>