<svg id="visual" viewBox="0 0 1080 3000" width="1080" height="3000" xmlns="http://www.w3.org/2000/svg" xmlns:xlink="http://www.w3.org/1999/xlink" version="1.1"><rect x="0" y="0" width="1080" height="3000" fill="#202122"></rect><path d="M507 3000L519.8 2968.8C532.7 2937.7 558.3 2875.3 561.3 2812.8C564.3 2750.3 544.7 2687.7 546.2 2625.2C547.7 2562.7 570.3 2500.3 570.3 2437.8C570.3 2375.3 547.7 2312.7 536.3 2250.2C525 2187.7 525 2125.3 521.5 2062.8C518 2000.3 511 1937.7 525.8 1875.2C540.7 1812.7 577.3 1750.3 594.5 1687.8C611.7 1625.3 609.3 1562.7 596.3 1500.2C583.3 1437.7 559.7 1375.3 543 1312.8C526.3 1250.3 516.7 1187.7 524 1125.2C531.3 1062.7 555.7 1000.3 555.3 937.8C555 875.3 530 812.7 532.2 750.2C534.3 687.7 563.7 625.3 573.2 562.8C582.7 500.3 572.3 437.7 572.2 375.2C572 312.7 582 250.3 576.3 187.8C570.7 125.3 549.3 62.7 538.7 31.3L528 0L1080 0L1080 31.3C1080 62.7 1080 125.3 1080 187.8C1080 250.3 1080 312.7 1080 375.2C1080 437.7 1080 500.3 1080 562.8C1080 625.3 1080 687.7 1080 750.2C1080 812.7 1080 875.3 1080 937.8C1080 1000.3 1080 1062.7 1080 1125.2C1080 1187.7 1080 1250.3 1080 1312.8C1080 1375.3 1080 1437.7 1080 1500.2C1080 1562.7 1080 1625.3 1080 1687.8C1080 1750.3 1080 1812.7 1080 1875.2C1080 1937.7 1080 2000.3 1080 2062.8C1080 2125.3 1080 2187.7 1080 2250.2C1080 2312.7 1080 2375.3 1080 2437.8C1080 2500.3 1080 2562.7 1080 2625.2C1080 2687.7 1080 2750.3 1080 2812.8C1080 2875.3 1080 2937.7 1080 2968.8L1080 3000Z" fill="#202122"></path><path d="M642 3000L633.3 2968.8C624.7 2937.7 607.3 2875.3 612.8 2812.8C618.3 2750.3 646.7 2687.7 646.8 2625.2C647 2562.7 619 2500.3 609.2 2437.8C599.3 2375.3 607.7 2312.7 613.2 2250.2C618.7 2187.7 621.3 2125.3 633.5 2062.8C645.7 2000.3 667.3 1937.7 670.5 1875.2C673.7 1812.7 658.3 1750.3 654 1687.8C649.7 1625.3 656.3 1562.7 655.3 1500.2C654.3 1437.7 645.7 1375.3 639.5 1312.8C633.3 1250.3 629.7 1187.7 633.7 1125.2C637.7 1062.7 649.3 1000.3 655.3 937.8C661.3 875.3 661.7 812.7 649.8 750.2C638 687.7 614 625.3 605.7 562.8C597.3 500.3 604.7 437.7 614.7 375.2C624.7 312.7 637.3 250.3 646.7 187.8C656 125.3 662 62.7 665 31.3L668 0L1080 0L1080 31.3C1080 62.7 1080 125.3 1080 187.8C1080 250.3 1080 312.7 1080 375.2C1080 437.7 1080 500.3 1080 562.8C1080 625.3 1080 687.7 1080 750.2C1080 812.7 1080 875.3 1080 937.8C1080 1000.3 1080 1062.7 1080 1125.2C1080 1187.7 1080 1250.3 1080 1312.8C1080 1375.3 1080 1437.7 1080 1500.2C1080 1562.7 1080 1625.3 1080 1687.8C1080 1750.3 1080 1812.7 1080 1875.2C1080 1937.7 1080 2000.3 1080 2062.8C1080 2125.3 1080 2187.7 1080 2250.2C1080 2312.7 1080 2375.3 1080 2437.8C1080 2500.3 1080 2562.7 1080 2625.2C1080 2687.7 1080 2750.3 1080 2812.8C1080 2875.3 1080 2937.7 1080 2968.8L1080 3000Z" fill="#194c79"></path><path d="M675 3000L671.2 2968.8C667.3 2937.7 659.7 2875.3 658.5 2812.8C657.3 2750.3 662.7 2687.7 679.3 2625.2C696 2562.7 724 2500.3 723.3 2437.8C722.7 2375.3 693.3 2312.7 695.2 2250.2C697 2187.7 730 2125.3 739.2 2062.8C748.3 2000.3 733.7 1937.7 728.5 1875.2C723.3 1812.7 727.7 1750.3 724 1687.8C720.3 1625.3 708.7 1562.7 708.8 1500.2C709 1437.7 721 1375.3 722.5 1312.8C724 1250.3 715 1187.7 704.3 1125.2C693.7 1062.7 681.3 1000.3 678.2 937.8C675 875.3 681 812.7 681 750.2C681 687.7 675 625.3 676.7 562.8C678.3 500.3 687.7 437.7 699.5 375.2C711.3 312.7 725.7 250.3 722.5 187.8C719.3 125.3 698.7 62.7 688.3 31.3L678 0L1080 0L1080 31.3C1080 62.7 1080 125.3 1080 187.8C1080 250.3 1080 312.7 1080 375.2C1080 437.7 1080 500.3 1080 562.8C1080 625.3 1080 687.7 1080 750.2C1080 812.7 1080 875.3 1080 937.8C1080 1000.3 1080 1062.7 1080 1125.2C1080 1187.7 1080 1250.3 1080 1312.8C1080 1375.3 1080 1437.7 1080 1500.2C1080 1562.7 1080 1625.3 1080 1687.8C1080 1750.3 1080 1812.7 1080 1875.2C1080 1937.7 1080 2000.3 1080 2062.8C1080 2125.3 1080 2187.7 1080 2250.2C1080 2312.7 1080 2375.3 1080 2437.8C1080 2500.3 1080 2562.7 1080 2625.2C1080 2687.7 1080 2750.3 1080 2812.8C1080 2875.3 1080 2937.7 1080 2968.8L1080 3000Z" fill="#3a72d9"></path><path d="M772 3000L766.3 2968.8C760.7 2937.7 749.3 2875.3 743 2812.8C736.7 2750.3 735.3 2687.7 747.7 2625.2C760 2562.7 786 2500.3 798.7 2437.8C811.3 2375.3 810.7 2312.7 798 2250.2C785.3 2187.7 760.7 2125.3 748.7 2062.8C736.7 2000.3 737.3 1937.7 740 1875.2C742.7 1812.7 747.3 1750.3 758.8 1687.8C770.3 1625.3 788.7 1562.7 795.7 1500.2C802.7 1437.7 798.3 1375.3 790.2 1312.8C782 1250.3 770 1187.7 771.2 1125.2C772.3 1062.7 786.7 1000.3 794 937.8C801.3 875.3 801.7 812.7 802.7 750.2C803.7 687.7 805.3 625.3 810.5 562.8C815.7 500.3 824.3 437.7 820.5 375.2C816.7 312.7 800.3 250.3 796.3 187.8C792.3 125.3 800.7 62.7 804.8 31.3L809 0L1080 0L1080 31.3C1080 62.7 1080 125.3 1080 187.8C1080 250.3 1080 312.7 1080 375.2C1080 437.7 1080 500.3 1080 562.8C1080 625.3 1080 687.7 1080 750.2C1080 812.7 1080 875.3 1080 937.8C1080 1000.3 1080 1062.7 1080 1125.2C1080 1187.7 1080 1250.3 1080 1312.8C1080 1375.3 1080 1437.7 1080 1500.2C1080 1562.7 1080 1625.3 1080 1687.8C1080 1750.3 1080 1812.7 1080 1875.2C1080 1937.7 1080 2000.3 1080 2062.8C1080 2125.3 1080 2187.7 1080 2250.2C1080 2312.7 1080 2375.3 1080 2437.8C1080 2500.3 1080 2562.7 1080 2625.2C1080 2687.7 1080 2750.3 1080 2812.8C1080 2875.3 1080 2937.7 1080 2968.8L1080 3000Z" fill="#5f7fff"></path><path d="M832 3000L841.7 2968.8C851.3 2937.7 870.7 2875.3 878.2 2812.8C885.7 2750.3 881.3 2687.7 877.3 2625.2C873.3 2562.7 869.7 2500.3 858.2 2437.8C846.7 2375.3 827.3 2312.7 818.2 2250.2C809 2187.7 810 2125.3 812.3 2062.8C814.7 2000.3 818.3 1937.7 827.5 1875.2C836.7 1812.7 851.3 1750.3 854.3 1687.8C857.3 1625.3 848.7 1562.7 843.3 1500.2C838 1437.7 836 1375.3 845.7 1312.8C855.3 1250.3 876.7 1187.7 886.7 1125.2C896.7 1062.7 895.3 1000.3 892.3 937.8C889.3 875.3 884.7 812.7 871.2 750.2C857.7 687.7 835.3 625.3 832.8 562.8C830.3 500.3 847.7 437.7 862.5 375.2C877.3 312.7 889.7 250.3 885.7 187.8C881.7 125.3 861.3 62.7 851.2 31.3L841 0L1080 0L1080 31.3C1080 62.7 1080 125.3 1080 187.8C1080 250.3 1080 312.7 1080 375.2C1080 437.7 1080 500.3 1080 562.8C1080 625.3 1080 687.7 1080 750.2C1080 812.7 1080 875.3 1080 937.8C1080 1000.3 1080 1062.7 1080 1125.2C1080 1187.7 1080 1250.3 1080 1312.8C1080 1375.3 1080 1437.7 1080 1500.2C1080 1562.7 1080 1625.3 1080 1687.8C1080 1750.3 1080 1812.7 1080 1875.2C1080 1937.7 1080 2000.3 1080 2062.8C1080 2125.3 1080 2187.7 1080 2250.2C1080 2312.7 1080 2375.3 1080 2437.8C1080 2500.3 1080 2562.7 1080 2625.2C1080 2687.7 1080 2750.3 1080 2812.8C1080 2875.3 1080 2937.7 1080 2968.8L1080 3000Z" fill="#3a72d9"></path><path d="M969 3000L961.2 2968.8C953.3 2937.7 937.7 2875.3 934.3 2812.8C931 2750.3 940 2687.7 935.3 2625.2C930.7 2562.7 912.3 2500.3 908.8 2437.8C905.3 2375.3 916.7 2312.7 929.3 2250.2C942 2187.7 956 2125.3 960.7 2062.8C965.3 2000.3 960.7 1937.7 960 1875.2C959.3 1812.7 962.7 1750.3 957.3 1687.8C952 1625.3 938 1562.7 936 1500.2C934 1437.7 944 1375.3 938.5 1312.8C933 1250.3 912 1187.7 913.2 1125.2C914.3 1062.7 937.7 1000.3 938.5 937.8C939.3 875.3 917.7 812.7 916.7 750.2C915.7 687.7 935.3 625.3 946.3 562.8C957.3 500.3 959.7 437.7 951.3 375.2C943 312.7 924 250.3 920.7 187.8C917.3 125.3 929.7 62.7 935.8 31.3L942 0L1080 0L1080 31.3C1080 62.7 1080 125.3 1080 187.8C1080 250.3 1080 312.7 1080 375.2C1080 437.7 1080 500.3 1080 562.8C1080 625.3 1080 687.7 1080 750.2C1080 812.7 1080 875.3 1080 937.8C1080 1000.3 1080 1062.7 1080 1125.2C1080 1187.7 1080 1250.3 1080 1312.8C1080 1375.3 1080 1437.7 1080 1500.2C1080 1562.7 1080 1625.3 1080 1687.8C1080 1750.3 1080 1812.7 1080 1875.2C1080 1937.7 1080 2000.3 1080 2062.8C1080 2125.3 1080 2187.7 1080 2250.2C1080 2312.7 1080 2375.3 1080 2437.8C1080 2500.3 1080 2562.7 1080 2625.2C1080 2687.7 1080 2750.3 1080 2812.8C1080 2875.3 1080 2937.7 1080 2968.8L1080 3000Z" fill="#194c79"></path><path d="M965 3000L972.7 2968.8C980.3 2937.7 995.7 2875.3 1002.8 2812.8C1010 2750.3 1009 2687.7 1013.7 2625.2C1018.3 2562.7 1028.7 2500.3 1021.3 2437.8C1014 2375.3 989 2312.7 987.2 2250.2C985.3 2187.7 1006.7 2125.3 1014.2 2062.8C1021.7 2000.3 1015.3 1937.7 1007.8 1875.2C1000.3 1812.7 991.7 1750.3 988.5 1687.8C985.3 1625.3 987.7 1562.7 986.5 1500.2C985.3 1437.7 980.7 1375.3 983.3 1312.8C986 1250.3 996 1187.7 997.3 1125.2C998.7 1062.7 991.3 1000.3 990.5 937.8C989.7 875.3 995.3 812.7 994.2 750.2C993 687.7 985 625.3 985.8 562.8C986.7 500.3 996.3 437.7 999.7 375.2C1003 312.7 1000 250.3 996.2 187.8C992.3 125.3 987.7 62.7 985.3 31.3L983 0L1080 0L1080 31.3C1080 62.7 1080 125.3 1080 187.8C1080 250.3 1080 312.7 1080 375.2C1080 437.7 1080 500.3 1080 562.8C1080 625.3 1080 687.7 1080 750.2C1080 812.7 1080 875.3 1080 937.8C1080 1000.3 1080 1062.7 1080 1125.2C1080 1187.7 1080 1250.3 1080 1312.8C1080 1375.3 1080 1437.7 1080 1500.2C1080 1562.7 1080 1625.3 1080 1687.8C1080 1750.3 1080 1812.7 1080 1875.2C1080 1937.7 1080 2000.3 1080 2062.8C1080 2125.3 1080 2187.7 1080 2250.2C1080 2312.7 1080 2375.3 1080 2437.8C1080 2500.3 1080 2562.7 1080 2625.2C1080 2687.7 1080 2750.3 1080 2812.8C1080 2875.3 1080 2937.7 1080 2968.8L1080 3000Z" fill="#202122"></path></svg>