<svg id="visual" viewBox="0 0 1920 1080" width="1920" height="1080" xmlns="http://www.w3.org/2000/svg" xmlns:xlink="http://www.w3.org/1999/xlink" version="1.1"><rect x="0" y="0" width="1920" height="1080" fill="#fff"></rect><path d="M0 823L80 775.3C160 727.7 320 632.3 480 644C640 655.7 800 774.3 960 821.5C1120 868.7 1280 844.3 1440 815.2C1600 786 1760 752 1840 735L1920 718L1920 1081L1840 1081C1760 1081 1600 1081 1440 1081C1280 1081 1120 1081 960 1081C800 1081 640 1081 480 1081C320 1081 160 1081 80 1081L0 1081Z" fill="#415d8f" stroke-linecap="round" stroke-linejoin="miter"></path></svg>