<svg id="visual" viewBox="0 0 1080 1920" width="1080" height="1920" xmlns="http://www.w3.org/2000/svg" xmlns:xlink="http://www.w3.org/1999/xlink" version="1.1"><path d="M809 1920L832.3 1890.8C855.7 1861.7 902.3 1803.3 922.2 1745.2C942 1687 935 1629 873.8 1570.8C812.7 1512.7 697.3 1454.3 679.3 1396.2C661.3 1338 740.7 1280 785.7 1221.8C830.7 1163.7 841.3 1105.3 839.5 1047.2C837.7 989 823.3 931 805.3 872.8C787.3 814.7 765.7 756.3 747.7 698.2C729.7 640 715.3 582 702.8 523.8C690.3 465.7 679.7 407.3 681.5 349.2C683.3 291 697.7 233 730 174.8C762.3 116.7 812.7 58.3 837.8 29.2L863 0L1080 0L1080 29.2C1080 58.3 1080 116.7 1080 174.8C1080 233 1080 291 1080 349.2C1080 407.3 1080 465.7 1080 523.8C1080 582 1080 640 1080 698.2C1080 756.3 1080 814.7 1080 872.8C1080 931 1080 989 1080 1047.2C1080 1105.3 1080 1163.7 1080 1221.8C1080 1280 1080 1338 1080 1396.2C1080 1454.3 1080 1512.7 1080 1570.8C1080 1629 1080 1687 1080 1745.2C1080 1803.3 1080 1861.7 1080 1890.8L1080 1920Z" fill="#ffffff"></path><path d="M669 1920L696 1890.8C723 1861.7 777 1803.3 795 1745.2C813 1687 795 1629 726.5 1570.8C658 1512.7 539 1454.3 521 1396.2C503 1338 586 1280 625.7 1221.8C665.3 1163.7 661.7 1105.3 650.8 1047.2C640 989 622 931 607.5 872.8C593 814.7 582 756.3 578.3 698.2C574.7 640 578.3 582 571.2 523.8C564 465.7 546 407.3 538.8 349.2C531.7 291 535.3 233 562.3 174.8C589.3 116.7 639.7 58.3 664.8 29.2L690 0L864 0L838.8 29.2C813.7 58.3 763.3 116.7 731 174.8C698.7 233 684.3 291 682.5 349.2C680.7 407.3 691.3 465.7 703.8 523.8C716.3 582 730.7 640 748.7 698.2C766.7 756.3 788.3 814.7 806.3 872.8C824.3 931 838.7 989 840.5 1047.2C842.3 1105.3 831.7 1163.7 786.7 1221.8C741.7 1280 662.3 1338 680.3 1396.2C698.3 1454.3 813.7 1512.7 874.8 1570.8C936 1629 943 1687 923.2 1745.2C903.3 1803.3 856.7 1861.7 833.3 1890.8L810 1920Z" fill="#deddff"></path><path d="M550 1920L550 1890.8C550 1861.7 550 1803.3 546.3 1745.2C542.7 1687 535.3 1629 495.7 1570.8C456 1512.7 384 1454.3 364.2 1396.2C344.3 1338 376.7 1280 392.8 1221.8C409 1163.7 409 1105.3 418 1047.2C427 989 445 931 427 872.8C409 814.7 355 756.3 346 698.2C337 640 373 582 387.5 523.8C402 465.7 395 407.3 380.7 349.2C366.3 291 344.7 233 362.7 174.8C380.7 116.7 438.3 58.3 467.2 29.2L496 0L691 0L665.8 29.2C640.7 58.3 590.3 116.7 563.3 174.8C536.3 233 532.7 291 539.8 349.2C547 407.3 565 465.7 572.2 523.8C579.3 582 575.7 640 579.3 698.2C583 756.3 594 814.7 608.5 872.8C623 931 641 989 651.8 1047.2C662.7 1105.3 666.3 1163.7 626.7 1221.8C587 1280 504 1338 522 1396.2C540 1454.3 659 1512.7 727.5 1570.8C796 1629 814 1687 796 1745.2C778 1803.3 724 1861.7 697 1890.8L670 1920Z" fill="#babdff"></path><path d="M474 1920L461.5 1890.8C449 1861.7 424 1803.3 416.8 1745.2C409.7 1687 420.3 1629 386 1570.8C351.7 1512.7 272.3 1454.3 240 1396.2C207.7 1338 222.3 1280 244 1221.8C265.7 1163.7 294.3 1105.3 303.3 1047.2C312.3 989 301.7 931 276.5 872.8C251.3 814.7 211.7 756.3 211.7 698.2C211.7 640 251.3 582 256.7 523.8C262 465.7 233 407.3 215 349.2C197 291 190 233 217 174.8C244 116.7 305 58.3 335.5 29.2L366 0L497 0L468.2 29.2C439.3 58.3 381.7 116.7 363.7 174.8C345.7 233 367.3 291 381.7 349.2C396 407.3 403 465.7 388.5 523.8C374 582 338 640 347 698.2C356 756.3 410 814.7 428 872.8C446 931 428 989 419 1047.2C410 1105.3 410 1163.7 393.8 1221.8C377.7 1280 345.3 1338 365.2 1396.2C385 1454.3 457 1512.7 496.7 1570.8C536.3 1629 543.7 1687 547.3 1745.2C551 1803.3 551 1861.7 551 1890.8L551 1920Z" fill="#929dff"></path><path d="M0 1920L0 1890.8C0 1861.7 0 1803.3 0 1745.2C0 1687 0 1629 0 1570.8C0 1512.7 0 1454.3 0 1396.2C0 1338 0 1280 0 1221.8C0 1163.7 0 1105.3 0 1047.2C0 989 0 931 0 872.8C0 814.7 0 756.3 0 698.2C0 640 0 582 0 523.8C0 465.7 0 407.3 0 349.2C0 291 0 233 0 174.8C0 116.7 0 58.3 0 29.2L0 0L367 0L336.5 29.2C306 58.3 245 116.7 218 174.8C191 233 198 291 216 349.2C234 407.3 263 465.7 257.7 523.8C252.3 582 212.7 640 212.7 698.2C212.7 756.3 252.3 814.7 277.5 872.8C302.7 931 313.3 989 304.3 1047.2C295.3 1105.3 266.7 1163.7 245 1221.8C223.3 1280 208.7 1338 241 1396.2C273.3 1454.3 352.7 1512.7 387 1570.8C421.3 1629 410.7 1687 417.8 1745.2C425 1803.3 450 1861.7 462.5 1890.8L475 1920Z" fill="#5f7fff"></path></svg>