<svg id="visual" viewBox="0 0 1920 1080" width="1920" height="1080" xmlns="http://www.w3.org/2000/svg" xmlns:xlink="http://www.w3.org/1999/xlink" version="1.1"><rect x="0" y="0" width="1920" height="1080" fill="#202122"></rect><defs><linearGradient id="grad1_0" x1="43.8%" y1="100%" x2="100%" y2="0%"><stop offset="14.444444444444446%" stop-color="#5f7fff" stop-opacity="1"></stop><stop offset="85.55555555555554%" stop-color="#5f7fff" stop-opacity="1"></stop></linearGradient></defs><defs><linearGradient id="grad1_1" x1="43.8%" y1="100%" x2="100%" y2="0%"><stop offset="14.444444444444446%" stop-color="#5f7fff" stop-opacity="1"></stop><stop offset="85.55555555555554%" stop-color="#2064b3" stop-opacity="1"></stop></linearGradient></defs><defs><linearGradient id="grad1_2" x1="43.8%" y1="100%" x2="100%" y2="0%"><stop offset="14.444444444444446%" stop-color="#1c4367" stop-opacity="1"></stop><stop offset="85.55555555555554%" stop-color="#2064b3" stop-opacity="1"></stop></linearGradient></defs><defs><linearGradient id="grad1_3" x1="43.8%" y1="100%" x2="100%" y2="0%"><stop offset="14.444444444444446%" stop-color="#1c4367" stop-opacity="1"></stop><stop offset="85.55555555555554%" stop-color="#202122" stop-opacity="1"></stop></linearGradient></defs><defs><linearGradient id="grad2_0" x1="0%" y1="100%" x2="56.3%" y2="0%"><stop offset="14.444444444444446%" stop-color="#5f7fff" stop-opacity="1"></stop><stop offset="85.55555555555554%" stop-color="#5f7fff" stop-opacity="1"></stop></linearGradient></defs><defs><linearGradient id="grad2_1" x1="0%" y1="100%" x2="56.3%" y2="0%"><stop offset="14.444444444444446%" stop-color="#2064b3" stop-opacity="1"></stop><stop offset="85.55555555555554%" stop-color="#5f7fff" stop-opacity="1"></stop></linearGradient></defs><defs><linearGradient id="grad2_2" x1="0%" y1="100%" x2="56.3%" y2="0%"><stop offset="14.444444444444446%" stop-color="#2064b3" stop-opacity="1"></stop><stop offset="85.55555555555554%" stop-color="#1c4367" stop-opacity="1"></stop></linearGradient></defs><defs><linearGradient id="grad2_3" x1="0%" y1="100%" x2="56.3%" y2="0%"><stop offset="14.444444444444446%" stop-color="#202122" stop-opacity="1"></stop><stop offset="85.55555555555554%" stop-color="#1c4367" stop-opacity="1"></stop></linearGradient></defs><g transform="translate(1920, 1080)"><path d="M-1026 0C-1039.2 -159.8 -1052.4 -319.7 -947.9 -392.6C-843.4 -465.6 -621.2 -451.6 -509.1 -509.1C-397.1 -566.6 -395.2 -695.6 -328.7 -793.6C-262.2 -891.7 -131.1 -958.8 0 -1026L0 0Z" fill="#203243"></path><path d="M-769.5 0C-779.4 -119.9 -789.3 -239.8 -710.9 -294.5C-632.5 -349.2 -465.9 -338.7 -381.8 -381.8C-297.8 -425 -296.4 -521.7 -246.5 -595.2C-196.7 -668.8 -98.3 -719.1 0 -769.5L0 0Z" fill="#17548c"></path><path d="M-513 0C-519.6 -79.9 -526.2 -159.8 -474 -196.3C-421.7 -232.8 -310.6 -225.8 -254.6 -254.6C-198.5 -283.3 -197.6 -347.8 -164.4 -396.8C-131.1 -445.8 -65.6 -479.4 0 -513L0 0Z" fill="#3b72da"></path><path d="M-256.5 0C-259.8 -40 -263.1 -79.9 -237 -98.2C-210.8 -116.4 -155.3 -112.9 -127.3 -127.3C-99.3 -141.7 -98.8 -173.9 -82.2 -198.4C-65.6 -222.9 -32.8 -239.7 0 -256.5L0 0Z" fill="#5f7fff"></path></g><g transform="translate(0, 0)"><path d="M1026 0C988.8 138.7 951.5 277.4 864.8 358.2C778 438.9 641.7 461.7 566.4 566.4C491.1 671.1 476.9 857.6 392.6 947.9C308.4 1038.2 154.2 1032.1 0 1026L0 0Z" fill="#203243"></path><path d="M769.5 0C741.6 104 713.6 208.1 648.6 268.6C583.5 329.2 481.3 346.3 424.8 424.8C368.3 503.3 357.6 643.2 294.5 710.9C231.3 778.6 115.7 774.1 0 769.5L0 0Z" fill="#17548c"></path><path d="M513 0C494.4 69.4 475.8 138.7 432.4 179.1C389 219.5 320.8 230.9 283.2 283.2C245.6 335.5 238.4 428.8 196.3 474C154.2 519.1 77.1 516 0 513L0 0Z" fill="#3b72da"></path><path d="M256.5 0C247.2 34.7 237.9 69.4 216.2 89.5C194.5 109.7 160.4 115.4 141.6 141.6C122.8 167.8 119.2 214.4 98.2 237C77.1 259.5 38.6 258 0 256.5L0 0Z" fill="#5f7fff"></path></g></svg>