<svg id="visual" viewBox="0 0 1920 1080" width="1920" height="1080" xmlns="http://www.w3.org/2000/svg" xmlns:xlink="http://www.w3.org/1999/xlink" version="1.1"><path d="M0 260L40 263.7C80 267.3 160 274.7 240 272.8C320 271 400 260 480 258.2C560 256.3 640 263.7 720 251.2C800 238.7 880 206.3 960 211.7C1040 217 1120 260 1200 254.5C1280 249 1360 195 1440 193.3C1520 191.7 1600 242.3 1680 264C1760 285.7 1840 278.3 1880 274.7L1920 271L1920 0L1880 0C1840 0 1760 0 1680 0C1600 0 1520 0 1440 0C1360 0 1280 0 1200 0C1120 0 1040 0 960 0C880 0 800 0 720 0C640 0 560 0 480 0C400 0 320 0 240 0C160 0 80 0 40 0L0 0Z" fill="#202122"></path><path d="M0 357L40 366C80 375 160 393 240 405.7C320 418.3 400 425.7 480 445.5C560 465.3 640 497.7 720 470.7C800 443.7 880 357.3 960 337.5C1040 317.7 1120 364.3 1200 362.5C1280 360.7 1360 310.3 1440 332C1520 353.7 1600 447.3 1680 470.8C1760 494.3 1840 447.7 1880 424.3L1920 401L1920 269L1880 272.7C1840 276.3 1760 283.7 1680 262C1600 240.3 1520 189.7 1440 191.3C1360 193 1280 247 1200 252.5C1120 258 1040 215 960 209.7C880 204.3 800 236.7 720 249.2C640 261.7 560 254.3 480 256.2C400 258 320 269 240 270.8C160 272.7 80 265.3 40 261.7L0 258Z" fill="#17548c"></path><path d="M0 530L40 539C80 548 160 566 240 582.2C320 598.3 400 612.7 480 621.7C560 630.7 640 634.3 720 607.3C800 580.3 880 522.7 960 504.7C1040 486.7 1120 508.3 1200 501.2C1280 494 1360 458 1440 483.2C1520 508.3 1600 594.7 1680 619.8C1760 645 1840 609 1880 591L1920 573L1920 399L1880 422.3C1840 445.7 1760 492.3 1680 468.8C1600 445.3 1520 351.7 1440 330C1360 308.3 1280 358.7 1200 360.5C1120 362.3 1040 315.7 960 335.5C880 355.3 800 441.7 720 468.7C640 495.7 560 463.3 480 443.5C400 423.7 320 416.3 240 403.7C160 391 80 373 40 364L0 355Z" fill="#5f7fff"></path><path d="M0 671L40 676.3C80 681.7 160 692.3 240 704.8C320 717.3 400 731.7 480 737C560 742.3 640 738.7 720 708.2C800 677.7 880 620.3 960 604.2C1040 588 1120 613 1200 609.3C1280 605.7 1360 573.3 1440 596.8C1520 620.3 1600 699.7 1680 728.5C1760 757.3 1840 735.7 1880 724.8L1920 714L1920 571L1880 589C1840 607 1760 643 1680 617.8C1600 592.7 1520 506.3 1440 481.2C1360 456 1280 492 1200 499.2C1120 506.3 1040 484.7 960 502.7C880 520.7 800 578.3 720 605.3C640 632.3 560 628.7 480 619.7C400 610.7 320 596.3 240 580.2C160 564 80 546 40 537L0 528Z" fill="#5f7fff"></path><path d="M0 811L40 811C80 811 160 811 240 820C320 829 400 847 480 852.3C560 857.7 640 850.3 720 823.3C800 796.3 880 749.7 960 737.2C1040 724.7 1120 746.3 1200 735.5C1280 724.7 1360 681.3 1440 708.3C1520 735.3 1600 832.7 1680 861.5C1760 890.3 1840 850.7 1880 830.8L1920 811L1920 712L1880 722.8C1840 733.7 1760 755.3 1680 726.5C1600 697.7 1520 618.3 1440 594.8C1360 571.3 1280 603.7 1200 607.3C1120 611 1040 586 960 602.2C880 618.3 800 675.7 720 706.2C640 736.7 560 740.3 480 735C400 729.7 320 715.3 240 702.8C160 690.3 80 679.7 40 674.3L0 669Z" fill="#17548c"></path><path d="M0 1081L40 1081C80 1081 160 1081 240 1081C320 1081 400 1081 480 1081C560 1081 640 1081 720 1081C800 1081 880 1081 960 1081C1040 1081 1120 1081 1200 1081C1280 1081 1360 1081 1440 1081C1520 1081 1600 1081 1680 1081C1760 1081 1840 1081 1880 1081L1920 1081L1920 809L1880 828.8C1840 848.7 1760 888.3 1680 859.5C1600 830.7 1520 733.3 1440 706.3C1360 679.3 1280 722.7 1200 733.5C1120 744.3 1040 722.7 960 735.2C880 747.7 800 794.3 720 821.3C640 848.3 560 855.7 480 850.3C400 845 320 827 240 818C160 809 80 809 40 809L0 809Z" fill="#202122"></path></svg>